<?xml version="1.0" standalone="no"?>
<!DOCTYPE svg PUBLIC "-//W3C//DTD SVG 20010904//EN"
 "http://www.w3.org/TR/2001/REC-SVG-20010904/DTD/svg10.dtd">
<svg version="1.0" xmlns="http://www.w3.org/2000/svg"
 width="700.000000pt" height="700.000000pt" viewBox="0 0 700.000000 700.000000"
 preserveAspectRatio="xMidYMid meet">
<metadata>
Created by potrace 1.14, written by Peter Selinger 2001-2017
</metadata>
<g transform="translate(0.000000,700.000000) scale(0.100000,-0.100000)"
fill="#000000" stroke="none">
<path d="M3188 6705 c-2 -1 -77 -5 -168 -9 -91 -3 -176 -8 -190 -10 -14 -3
-52 -7 -85 -11 -91 -9 -141 -15 -245 -31 -52 -8 -111 -17 -130 -20 -19 -3 -82
-16 -140 -30 -58 -14 -112 -27 -121 -29 -51 -11 -189 -64 -284 -110 -278 -134
-415 -354 -347 -560 76 -231 473 -1073 537 -1139 41 -43 130 -86 178 -86 l32
0 -41 -19 c-46 -21 -84 -76 -84 -120 0 -16 22 -107 49 -202 99 -346 150 -572
215 -949 14 -76 36 -221 41 -260 3 -25 7 -58 9 -75 2 -16 7 -59 11 -95 4 -36
8 -76 10 -90 2 -14 7 -59 10 -100 3 -41 7 -95 10 -120 11 -113 17 -255 24
-573 1 -23 30 -57 146 -174 l145 -146 0 -416 c0 -448 3 -478 54 -565 35 -60
82 -99 172 -142 67 -32 96 -56 225 -185 l148 -148 145 0 145 0 158 158 c101
101 177 168 210 186 67 36 127 100 167 178 l31 62 5 440 5 440 143 141 142
141 5 189 c2 104 7 227 10 274 17 231 23 308 30 368 3 23 7 63 10 90 3 26 8
61 10 77 2 17 7 53 10 80 3 28 10 75 15 105 13 76 18 108 25 160 11 73 62 334
97 485 11 50 23 106 28 125 13 58 86 329 115 425 40 132 23 198 -61 236 l-35
16 43 5 c59 7 110 32 158 80 32 30 69 97 165 294 69 141 125 257 125 259 0 1
20 45 44 96 86 185 106 231 161 369 62 153 74 218 56 300 -49 229 -280 400
-684 505 -73 19 -161 39 -197 45 -36 6 -76 13 -90 16 -55 10 -182 27 -295 39
-27 3 -68 7 -90 10 -114 12 -265 17 -607 20 -207 2 -378 2 -380 0z"/>
</g>
</svg>
