<?xml version="1.0" standalone="no"?>
<!DOCTYPE svg PUBLIC "-//W3C//DTD SVG 20010904//EN"
 "http://www.w3.org/TR/2001/REC-SVG-20010904/DTD/svg10.dtd">
<svg version="1.0" xmlns="http://www.w3.org/2000/svg"
 width="700.000000pt" height="700.000000pt" viewBox="0 0 700.000000 700.000000"
 preserveAspectRatio="xMidYMid meet">
<metadata>
Created by potrace 1.14, written by Peter Selinger 2001-2017
</metadata>
<g transform="translate(0.000000,700.000000) scale(0.100000,-0.100000)"
fill="#000000" stroke="none">
<path d="M1780 6824 c0 -3 -164 -983 -365 -2178 -201 -1194 -365 -2177 -365
-2184 0 -9 222 -12 960 -12 l960 0 0 -138 0 -138 -64 -27 c-112 -49 -271 -161
-381 -268 -199 -194 -323 -410 -391 -683 -35 -140 -44 -387 -20 -537 21 -127
73 -286 130 -399 l43 -85 1213 0 1213 0 43 85 c96 190 144 396 144 614 0 234
-42 414 -145 621 -77 156 -160 268 -289 393 -102 99 -265 212 -372 259 l-64
27 0 138 0 138 960 0 c731 0 960 3 960 12 0 6 -164 989 -365 2184 -201 1195
-365 2175 -365 2178 0 3 -774 6 -1720 6 -946 0 -1720 -2 -1720 -6z"/>
</g>
</svg>
